<?xml version="1.0"?>
<svg xmlns="http://www.w3.org/2000/svg" xmlns:xlink="http://www.w3.org/1999/xlink" version="1.1" id="Layer_1" x="0px" y="0px" viewBox="0 0 512.332 512.332" style="enable-background:new 0 0 512.332 512.332;" xml:space="preserve" width="512px" height="512px" class=""><g><g>
	<g>
		<path d="M306.15,5.108c-0.302-0.074-0.609-0.132-0.918-0.173c-32.433-6.339-65.786-6.339-98.219,0    c-4.622,0.923-7.62,5.417-6.698,10.039c0.036,0.182,0.079,0.363,0.127,0.542l22.187,82.688c1.126,4.214,5.248,6.901,9.557,6.229    c15.861-2.482,32.011-2.482,47.872,0h1.621c3.967,0.136,7.504-2.481,8.533-6.315l22.187-82.688    C313.525,10.854,310.727,6.232,306.15,5.108z M275.11,86.514c-12.591-1.398-25.297-1.398-37.888,0l-17.92-66.475    c24.373-3.78,49.184-3.78,73.557,0L275.11,86.514z" data-original="#000000" class="active-path" data-old_color="#000000" fill="#916000"/>
	</g>
</g><g>
	<g>
		<path d="M206.161,102.556l-22.187-82.773c-0.649-2.246-2.191-4.128-4.267-5.205c-2.081-1.091-4.52-1.277-6.741-0.512    c-31.388,10.599-60.383,27.271-85.333,49.067c-3.44,3.221-3.618,8.621-0.397,12.061c0.128,0.137,0.26,0.269,0.397,0.397    l60.587,60.587c3.092,3.106,8.035,3.365,11.435,0.597c12.437-10.115,26.408-18.181,41.387-23.893    C205.165,111.286,207.387,106.805,206.161,102.556z M154.875,118.77l-48.64-48.725c19.16-15.521,40.642-27.932,63.659-36.779    l17.92,66.56C176.153,104.874,165.103,111.229,154.875,118.77z" data-original="#000000" class="active-path" data-old_color="#000000" fill="#916000"/>
	</g>
</g><g>
	<g>
		<path d="M136.017,148.21L75.43,87.623c-1.675-1.57-3.943-2.346-6.229-2.133c-2.361,0.075-4.586,1.125-6.144,2.901    c-21.795,24.95-38.468,53.945-49.067,85.333c-1.524,4.46,0.856,9.31,5.315,10.834c0.189,0.065,0.38,0.122,0.573,0.174    l82.773,22.187c0.736,0.097,1.482,0.097,2.219,0c3.518-0.01,6.669-2.179,7.936-5.461c5.645-15.123,13.684-29.241,23.808-41.813    C139.381,156.245,139.123,151.302,136.017,148.21z M99.75,187.89l-66.56-17.92c8.847-23.016,21.258-44.498,36.779-63.659    l48.725,48.725C111.159,165.237,104.804,176.258,99.75,187.89z" data-original="#000000" class="active-path" data-old_color="#000000" fill="#916000"/>
	</g>
</g><g>
	<g>
		<path d="M104.443,232.434c0.671-4.31-2.016-8.432-6.229-9.557l-82.773-22.443c-2.318-0.635-4.797-0.264-6.827,1.024    c-1.987,1.243-3.376,3.249-3.84,5.547c-6.365,32.43-6.365,65.789,0,98.219c0.823,4.037,4.414,6.91,8.533,6.827    c0.736,0.096,1.482,0.096,2.219,0l82.688-22.187c4.214-1.126,6.9-5.248,6.229-9.557    C101.955,264.445,101.955,248.294,104.443,232.434z M86.353,275.1l-66.389,17.835c-3.785-24.366-3.786-49.169-0.003-73.535    l66.393,17.813C84.955,249.803,84.955,262.51,86.353,275.1z" data-original="#000000" class="active-path" data-old_color="#000000" fill="#916000"/>
	</g>
</g><g>
	<g>
		<path d="M136.614,352.668c-10.115-12.437-18.181-26.408-23.893-41.387c-1.56-4.117-5.995-6.371-10.24-5.205l-82.773,22.187    c-4.555,1.208-7.269,5.88-6.062,10.435c0.051,0.193,0.109,0.384,0.174,0.573c10.599,31.388,27.271,60.383,49.067,85.333    c1.715,1.569,3.995,2.37,6.315,2.219c2.268,0.013,4.448-0.877,6.059-2.475l60.587-60.587    C138.807,360.761,139.133,356.048,136.614,352.668z M69.969,406.002c-15.521-19.16-27.932-40.642-36.779-63.659l66.56-17.92    c5.06,11.602,11.415,22.594,18.944,32.768L69.969,406.002z" data-original="#000000" class="active-path" data-old_color="#000000" fill="#916000"/>
	</g>
</g><g>
	<g>
		<path d="M200.955,399.516c-14.979-5.712-28.95-13.778-41.387-23.893c-3.399-2.767-8.342-2.509-11.435,0.597l-60.587,60.587    c-3.44,3.221-3.618,8.621-0.397,12.061c0.128,0.137,0.26,0.269,0.397,0.397c24.975,21.805,54.001,38.478,85.419,49.067    c0.881,0.29,1.803,0.434,2.731,0.427c1.401-0.007,2.778-0.359,4.011-1.024c2.094-1.097,3.638-3.012,4.267-5.291l22.187-82.773    C207.277,405.453,205.031,401.073,200.955,399.516z M169.894,479.047c-23.016-8.846-44.498-21.258-63.659-36.779l48.64-48.725    c10.227,7.54,21.278,13.896,32.939,18.944L169.894,479.047z" data-original="#000000" class="active-path" data-old_color="#000000" fill="#916000"/>
	</g>
</g><g>
	<g>
		<path d="M311.845,497.339c-0.036-0.182-0.079-0.363-0.127-0.542l-22.187-82.688c-1.126-4.214-5.248-6.901-9.557-6.229    c-15.861,2.482-32.011,2.482-47.872,0c-4.31-0.671-8.432,2.016-9.557,6.229l-22.187,82.688c-1.222,4.552,1.477,9.232,6.028,10.454    c0.179,0.048,0.36,0.091,0.542,0.127c32.43,6.365,65.789,6.365,98.219,0C309.769,506.455,312.768,501.96,311.845,497.339z     M219.217,492.274l17.835-66.475c12.591,1.398,25.297,1.398,37.888,0l17.835,66.475    C268.401,496.054,243.59,496.054,219.217,492.274z" data-original="#000000" class="active-path" data-old_color="#000000" fill="#916000"/>
	</g>
</g><g>
	<g>
		<path d="M424.926,437.204c-0.128-0.137-0.26-0.269-0.397-0.397l-60.587-60.587c-3.081-3.056-7.965-3.313-11.349-0.597    c-12.437,10.115-26.408,18.181-41.387,23.893c-4.117,1.56-6.371,5.995-5.205,10.24l22.187,82.773    c0.649,2.246,2.191,4.128,4.267,5.205c1.233,0.665,2.61,1.017,4.011,1.024c0.927,0.007,1.85-0.137,2.731-0.427    c31.388-10.599,60.383-27.271,85.333-49.067C427.969,446.045,428.147,440.645,424.926,437.204z M342.353,479.047l-18.005-66.56    c11.661-5.048,22.711-11.404,32.939-18.944l48.725,48.725C386.851,457.789,365.369,470.2,342.353,479.047z" data-original="#000000" class="active-path" data-old_color="#000000" fill="#916000"/>
	</g>
</g><g>
	<g>
		<path d="M492.6,327.754c-0.189-0.065-0.38-0.122-0.573-0.174l-82.347-21.504c-4.218-1.116-8.598,1.129-10.155,5.205    c-5.739,14.984-13.833,28.956-23.979,41.387c-2.767,3.399-2.509,8.342,0.597,11.435l60.587,60.587    c1.643,1.452,3.782,2.216,5.973,2.133c2.361-0.075,4.586-1.125,6.144-2.901c21.795-24.95,38.468-53.945,49.067-85.333    C499.439,334.129,497.06,329.278,492.6,327.754z M442.107,405.916l-48.64-48.555c7.54-10.228,13.896-21.278,18.944-32.939    l66.475,17.835C470.04,365.274,457.628,386.756,442.107,405.916z" data-original="#000000" class="active-path" data-old_color="#000000" fill="#916000"/>
	</g>
</g><g>
	<g>
		<path d="M507.558,206.748c-0.568-2.233-2.014-4.141-4.011-5.291c-2.007-1.263-4.45-1.634-6.741-1.024l-82.688,22.187    c-4.214,1.126-6.901,5.248-6.229,9.557c2.488,15.86,2.488,32.012,0,47.872c-0.671,4.31,2.016,8.432,6.229,9.557l82.688,22.187    c0.736,0.097,1.482,0.097,2.219,0c4.12,0.083,7.71-2.789,8.533-6.827C513.923,272.537,513.923,239.178,507.558,206.748z     M492.198,292.935L425.723,275.1c1.398-12.591,1.398-25.297,0-37.888l66.475-17.835    C495.984,243.751,495.984,268.562,492.198,292.935z" data-original="#000000" class="active-path" data-old_color="#000000" fill="#916000"/>
	</g>
</g><g>
	<g>
		<path d="M498.43,173.614c-0.051-0.193-0.109-0.384-0.174-0.573c-10.599-31.388-27.271-60.383-49.067-85.333    c-1.694-1.547-3.939-2.346-6.229-2.219c-2.371-0.174-4.693,0.736-6.315,2.475l-60.587,60.587c-2.883,3.066-3.1,7.775-0.512,11.093    c10.115,12.437,18.181,26.408,23.893,41.387c1.267,3.282,4.418,5.451,7.936,5.461c0.736,0.097,1.482,0.097,2.219,0l82.773-22.443    C496.924,182.842,499.638,178.17,498.43,173.614z M412.411,187.89c-5.048-11.661-11.404-22.711-18.944-32.939l48.725-48.725    c15.521,19.16,27.932,40.642,36.779,63.659L412.411,187.89z" data-original="#000000" class="active-path" data-old_color="#000000" fill="#916000"/>
	</g>
</g><g>
	<g>
		<path d="M425.011,63.444c-0.128-0.137-0.26-0.269-0.397-0.397c-24.975-21.805-54.001-38.478-85.419-49.067    c-4.46-1.524-9.31,0.856-10.834,5.315c-0.065,0.189-0.122,0.38-0.174,0.573l-22.187,82.688c-1.116,4.218,1.129,8.598,5.205,10.155    c14.984,5.739,28.956,13.833,41.387,23.979c3.399,2.767,8.342,2.509,11.435-0.597l60.587-60.587    C428.054,72.285,428.232,66.885,425.011,63.444z M357.286,118.77c-10.228-7.54-21.278-13.896-32.939-18.944l17.92-66.56    c23.016,8.847,44.498,21.258,63.659,36.779L357.286,118.77z" data-original="#000000" class="active-path" data-old_color="#000000" fill="#916000"/>
	</g>
</g></g> </svg>
